<?xml version="1.0" standalone="no"?>
<!DOCTYPE svg PUBLIC "-//W3C//DTD SVG 20010904//EN"
 "http://www.w3.org/TR/2001/REC-SVG-20010904/DTD/svg10.dtd">
<svg version="1.0" xmlns="http://www.w3.org/2000/svg"
 width="300.000000pt" height="300.000000pt" viewBox="0 0 300.000000 300.000000"
 preserveAspectRatio="xMidYMid meet">
<metadata>
Created by potrace 1.11, written by Peter Selinger 2001-2013
</metadata>
<g transform="translate(0.000000,300.000000) scale(0.100000,-0.100000)"
fill="#000000" stroke="none">
<path d="M836 2060 c-69 -18 -156 -72 -206 -128 -97 -108 -140 -245 -140 -439
1 -289 112 -479 319 -543 117 -37 306 -19 420 40 40 20 41 21 41 75 0 30 -3
55 -7 55 -3 0 -36 -12 -72 -26 -95 -38 -210 -56 -283 -44 -200 32 -302 213
-285 505 10 159 42 248 114 316 49 47 85 65 159 78 63 12 172 2 228 -19 25 -9
26 -12 26 -90 l0 -80 60 0 60 0 0 119 c0 83 -4 122 -12 129 -7 5 -44 20 -83
32 -79 25 -273 36 -339 20z"/>
<path d="M1540 2000 l0 -50 60 0 60 0 0 -450 0 -450 -60 0 -60 0 0 -50 0 -50
180 0 180 0 0 50 0 50 -55 0 c-35 0 -57 5 -60 13 -3 6 -4 175 -3 374 l3 362
245 -424 245 -424 62 -1 63 0 2 498 3 497 58 3 57 3 0 49 0 50 -180 0 -180 0
0 -50 0 -50 60 0 60 0 0 -367 c0 -201 -3 -363 -7 -360 -3 4 -113 190 -243 415
l-238 407 -126 3 -126 3 0 -51z"/>
</g>
</svg>
